<svg width="24" height="14" viewBox="0 0 24 14" fill="none" xmlns="http://www.w3.org/2000/svg">
<path fill-rule="evenodd" clip-rule="evenodd" d="M0 7.0625C0 6.8673 0.0903001 6.68009 0.251035 6.54206C0.41177 6.40404 0.629774 6.32649 0.857088 6.32649H21.0724L15.6779 1.69553C15.5169 1.55733 15.4265 1.36989 15.4265 1.17444C15.4265 0.97899 15.5169 0.791546 15.6779 0.653344C15.8388 0.515141 16.0571 0.4375 16.2847 0.4375C16.5123 0.4375 16.7306 0.515141 16.8915 0.653344L23.7482 6.54141C23.828 6.60978 23.8913 6.691 23.9346 6.78041C23.9778 6.86983 24 6.96569 24 7.0625C24 7.15931 23.9778 7.25517 23.9346 7.34459C23.8913 7.43401 23.828 7.51522 23.7482 7.58359L16.8915 13.4717C16.7306 13.6099 16.5123 13.6875 16.2847 13.6875C16.0571 13.6875 15.8388 13.6099 15.6779 13.4717C15.5169 13.3335 15.4265 13.146 15.4265 12.9506C15.4265 12.7551 15.5169 12.5677 15.6779 12.4295L21.0724 7.79851H0.857088C0.629774 7.79851 0.41177 7.72096 0.251035 7.58294C0.0903001 7.44491 0 7.2577 0 7.0625Z" fill="#3B0C04"/>
</svg>
