<svg width="30" height="28" viewBox="0 0 30 28" fill="none" xmlns="http://www.w3.org/2000/svg">
<path d="M22.0171 18.1006C23.8326 15.7881 24.6457 12.9209 24.2938 10.0728C23.942 7.22467 22.451 4.60558 20.1192 2.73952C17.7875 0.87346 14.7869 -0.101946 11.7178 0.00844302C8.64871 0.118832 5.73744 1.30688 3.56643 3.33489C1.39541 5.3629 0.124773 8.08133 0.00871192 10.9463C-0.10735 13.8113 0.939728 16.6115 2.94046 18.7868C4.9412 20.962 7.74804 22.3519 10.7994 22.6784C13.8508 23.0048 16.9218 22.2437 19.3978 20.5474H19.396C19.4522 20.6174 19.5122 20.6839 19.5797 20.7486L26.7982 27.4868C27.1497 27.8152 27.6267 27.9998 28.124 28C28.6214 28.0002 29.0985 27.8159 29.4503 27.4877C29.8021 27.1595 29.9998 26.7144 30 26.2501C30.0002 25.7858 29.8028 25.3405 29.4512 25.0121L22.2327 18.2739C22.1657 18.2106 22.0936 18.1538 22.0171 18.1006ZM22.5008 11.3729C22.5008 12.637 22.2341 13.8888 21.7159 15.0566C21.1976 16.2245 20.4381 17.2857 19.4805 18.1795C18.5229 19.0734 17.3861 19.7824 16.135 20.2662C14.8839 20.7499 13.5429 20.9989 12.1887 20.9989C10.8345 20.9989 9.49357 20.7499 8.24245 20.2662C6.99133 19.7824 5.85453 19.0734 4.89696 18.1795C3.93939 17.2857 3.17981 16.2245 2.66158 15.0566C2.14334 13.8888 1.87661 12.637 1.87661 11.3729C1.87661 8.81996 2.96306 6.37155 4.89696 4.56633C6.83086 2.7611 9.45378 1.74694 12.1887 1.74694C14.9237 1.74694 17.5466 2.7611 19.4805 4.56633C21.4144 6.37155 22.5008 8.81996 22.5008 11.3729Z" fill="#3B0C04"/>
</svg>
