<svg width="20" height="25" viewBox="0 0 20 25" fill="none" xmlns="http://www.w3.org/2000/svg">
<path d="M0.91159 14.1219L15.5674 24.4624C17.2945 25.6827 20 24.6909 20 22.8389V2.15791C20.0004 1.74342 19.8527 1.33761 19.5745 0.989085C19.2964 0.640557 18.8995 0.364083 18.4315 0.192771C17.9635 0.0214589 17.4442 -0.0374284 16.9358 0.0231609C16.4273 0.0837502 15.9513 0.261247 15.5648 0.534397L0.914264 10.8749C0.627111 11.0772 0.396963 11.3268 0.239273 11.6068C0.0815834 11.8869 0 12.1908 0 12.4984C0 12.8059 0.0815834 13.1099 0.239273 13.3899C0.396963 13.67 0.627111 13.9195 0.914264 14.1219H0.91159Z" fill="#9CBF1B"/>
</svg>
