<svg width="18" height="18" viewBox="0 0 18 18" fill="none" xmlns="http://www.w3.org/2000/svg">
<path d="M9 3.9375C9 3.78832 8.94074 3.64524 8.83525 3.53975C8.72976 3.43426 8.58668 3.375 8.4375 3.375C8.28832 3.375 8.14524 3.43426 8.03975 3.53975C7.93426 3.64524 7.875 3.78832 7.875 3.9375V10.125C7.87503 10.2241 7.90127 10.3215 7.95106 10.4073C8.00084 10.493 8.07241 10.5641 8.1585 10.6132L12.096 12.8632C12.2252 12.9331 12.3766 12.9496 12.5179 12.9093C12.6591 12.869 12.779 12.775 12.8518 12.6475C12.9247 12.5199 12.9448 12.369 12.9078 12.2268C12.8709 12.0847 12.7798 11.9626 12.654 11.8867L9 9.79875V3.9375Z" fill="#3B0C04"/>
<path d="M9 18C11.3869 18 13.6761 17.0518 15.364 15.364C17.0518 13.6761 18 11.3869 18 9C18 6.61305 17.0518 4.32387 15.364 2.63604C13.6761 0.948212 11.3869 0 9 0C6.61305 0 4.32387 0.948212 2.63604 2.63604C0.948212 4.32387 0 6.61305 0 9C0 11.3869 0.948212 13.6761 2.63604 15.364C4.32387 17.0518 6.61305 18 9 18ZM16.875 9C16.875 11.0886 16.0453 13.0916 14.5685 14.5685C13.0916 16.0453 11.0886 16.875 9 16.875C6.91142 16.875 4.90838 16.0453 3.43153 14.5685C1.95468 13.0916 1.125 11.0886 1.125 9C1.125 6.91142 1.95468 4.90838 3.43153 3.43153C4.90838 1.95468 6.91142 1.125 9 1.125C11.0886 1.125 13.0916 1.95468 14.5685 3.43153C16.0453 4.90838 16.875 6.91142 16.875 9Z" fill="#3B0C04"/>
</svg>
