<svg width="14" height="12" viewBox="0 0 14 12" fill="none" xmlns="http://www.w3.org/2000/svg">
<path fill-rule="evenodd" clip-rule="evenodd" d="M0 10.6875C0 10.5383 0.0592633 10.3952 0.164753 10.2898C0.270242 10.1843 0.413316 10.125 0.5625 10.125H8.4375C8.58668 10.125 8.72976 10.1843 8.83525 10.2898C8.94074 10.3952 9 10.5383 9 10.6875C9 10.8367 8.94074 10.9798 8.83525 11.0852C8.72976 11.1907 8.58668 11.25 8.4375 11.25H0.5625C0.413316 11.25 0.270242 11.1907 0.164753 11.0852C0.0592633 10.9798 0 10.8367 0 10.6875ZM0 7.3125C0 7.16332 0.0592633 7.02024 0.164753 6.91475C0.270242 6.80926 0.413316 6.75 0.5625 6.75H12.9375C13.0867 6.75 13.2298 6.80926 13.3352 6.91475C13.4407 7.02024 13.5 7.16332 13.5 7.3125C13.5 7.46168 13.4407 7.60476 13.3352 7.71025C13.2298 7.81574 13.0867 7.875 12.9375 7.875H0.5625C0.413316 7.875 0.270242 7.81574 0.164753 7.71025C0.0592633 7.60476 0 7.46168 0 7.3125ZM0 3.9375C0 3.78832 0.0592633 3.64524 0.164753 3.53975C0.270242 3.43426 0.413316 3.375 0.5625 3.375H12.9375C13.0867 3.375 13.2298 3.43426 13.3352 3.53975C13.4407 3.64524 13.5 3.78832 13.5 3.9375C13.5 4.08668 13.4407 4.22976 13.3352 4.33525C13.2298 4.44074 13.0867 4.5 12.9375 4.5H0.5625C0.413316 4.5 0.270242 4.44074 0.164753 4.33525C0.0592633 4.22976 0 4.08668 0 3.9375ZM0 0.5625C0 0.413316 0.0592633 0.270242 0.164753 0.164753C0.270242 0.0592633 0.413316 0 0.5625 0H12.9375C13.0867 0 13.2298 0.0592633 13.3352 0.164753C13.4407 0.270242 13.5 0.413316 13.5 0.5625C13.5 0.711684 13.4407 0.854758 13.3352 0.960247C13.2298 1.06574 13.0867 1.125 12.9375 1.125H0.5625C0.413316 1.125 0.270242 1.06574 0.164753 0.960247C0.0592633 0.854758 0 0.711684 0 0.5625Z" fill="#3B0C04"/>
</svg>
