<svg width="17" height="17" viewBox="0 0 17 17" fill="none" xmlns="http://www.w3.org/2000/svg">
<path d="M0 8.5C0 6.24566 0.895533 4.08365 2.48959 2.48959C4.08365 0.895533 6.24566 0 8.5 0C10.7543 0 12.9163 0.895533 14.5104 2.48959C16.1045 4.08365 17 6.24566 17 8.5C17 10.7543 16.1045 12.9163 14.5104 14.5104C12.9163 16.1045 10.7543 17 8.5 17C6.24566 17 4.08365 16.1045 2.48959 14.5104C0.895533 12.9163 0 10.7543 0 8.5ZM7.96875 1.14431C7.25687 1.36106 6.55031 2.01556 5.96381 3.11525C5.81152 3.40071 5.67162 3.70954 5.54412 4.04175C6.29319 4.20856 7.10812 4.31481 7.96875 4.34669V1.14431ZM4.51456 3.76019C4.66615 3.35148 4.8365 2.96969 5.02563 2.61481C5.21055 2.26814 5.42265 1.93666 5.65994 1.6235C4.75526 1.9981 3.93346 2.54765 3.24169 3.24062C3.62702 3.43683 4.05131 3.60931 4.51456 3.76019ZM3.72831 7.96875C3.76656 6.83187 3.92806 5.75131 4.19156 4.77275C3.61616 4.58955 3.0594 4.35226 2.52875 4.06406C1.6823 5.20013 1.18001 6.55544 1.08163 7.96875H3.72831ZM5.21581 5.05644C4.96494 6.00811 4.82237 6.98507 4.79081 7.96875H7.96875V5.40919C7.00187 5.37731 6.07431 5.25512 5.21581 5.05644ZM9.03125 5.40813V7.96875H12.2081C12.1769 6.98511 12.0347 6.00815 11.7842 5.05644C10.9257 5.25512 9.99813 5.37519 9.03125 5.40813ZM4.79188 9.03125C4.82906 10.0799 4.97887 11.0649 5.21581 11.9436C6.12005 11.7383 7.04195 11.6205 7.96875 11.5919V9.03125H4.79188ZM9.03125 9.03125V11.5908C9.99813 11.6227 10.9257 11.7449 11.7842 11.9436C12.0211 11.0649 12.1709 10.0799 12.2092 9.03125H9.03125ZM5.54412 12.9583C5.67162 13.2905 5.81152 13.5993 5.96381 13.8847C6.55031 14.9844 7.25794 15.6379 7.96875 15.8557V12.6544C7.10812 12.6862 6.29319 12.7914 5.54412 12.9583ZM5.661 15.3765C5.42334 15.0634 5.21089 14.7319 5.02563 14.3852C4.83035 14.0146 4.65963 13.6317 4.51456 13.2388C4.07751 13.3793 3.65196 13.5534 3.24169 13.7594C3.93346 14.4523 4.75633 15.0019 5.661 15.3765ZM4.19156 12.2273C3.91607 11.183 3.7603 10.1107 3.72725 9.03125H1.08163C1.18001 10.4446 1.6823 11.7999 2.52875 12.9359C3.02813 12.6618 3.58594 12.4238 4.19156 12.2273ZM11.3401 15.3765C12.2443 15.0021 13.0657 14.4529 13.7572 13.7604C13.3473 13.5545 12.9221 13.3804 12.4854 13.2398C12.3403 13.6324 12.1696 14.015 11.9744 14.3852C11.7895 14.7319 11.5774 15.0633 11.3401 15.3765ZM9.03125 12.6533V15.8557C9.74313 15.6389 10.4497 14.9844 11.0362 13.8847C11.1892 13.5993 11.3291 13.2905 11.4559 12.9583C10.6586 12.7833 9.84703 12.6805 9.03125 12.6533ZM12.8084 12.2273C13.4141 12.4238 13.9719 12.6618 14.4712 12.9359C15.3177 11.7999 15.82 10.4446 15.9184 9.03125H13.2727C13.2397 10.1107 13.0839 11.183 12.8084 12.2273ZM15.9184 7.96875C15.82 6.55544 15.3177 5.20013 14.4712 4.06406C13.9719 4.33819 13.4141 4.57619 12.8084 4.77275C13.0719 5.75025 13.2334 6.83187 13.2727 7.96875H15.9184ZM11.9744 2.61481C12.1628 2.9704 12.3335 3.35219 12.4865 3.76019C12.9228 3.61954 13.3477 3.44548 13.7572 3.23956C13.0656 2.54747 12.2442 1.99866 11.3401 1.62456C11.5717 1.92525 11.7842 2.25887 11.9744 2.61481ZM11.4559 4.04175C11.3346 3.72482 11.1945 3.41543 11.0362 3.11525C10.4497 2.01556 9.74313 1.36213 9.03125 1.14431V4.34563C9.89188 4.31375 10.7068 4.20856 11.4559 4.04175Z" fill="#3B0C04"/>
</svg>
