<svg width="16" height="21" viewBox="0 0 16 21" fill="none" xmlns="http://www.w3.org/2000/svg">
<path d="M13.5547 11.7337C12.856 13.1276 11.9093 14.5163 10.9413 15.7631C10.0221 16.9378 9.04025 18.0638 8 19.1362C6.95975 18.0638 5.97793 16.9378 5.05867 15.7631C4.09067 14.5163 3.144 13.1276 2.44533 11.7337C1.73867 10.3254 1.33333 9.00638 1.33333 7.875C1.33333 6.13452 2.03571 4.46532 3.28595 3.23461C4.5362 2.0039 6.23189 1.3125 8 1.3125C9.76811 1.3125 11.4638 2.0039 12.714 3.23461C13.9643 4.46532 14.6667 6.13452 14.6667 7.875C14.6667 9.00638 14.26 10.3254 13.5547 11.7337ZM8 21C8 21 16 13.5371 16 7.875C16 5.78642 15.1571 3.78338 13.6569 2.30653C12.1566 0.829685 10.1217 0 8 0C5.87827 0 3.84344 0.829685 2.34315 2.30653C0.842855 3.78338 3.16163e-08 5.78642 0 7.875C0 13.5371 8 21 8 21Z" fill="#3B0C04"/>
<path d="M8 10.5C7.29276 10.5 6.61448 10.2234 6.11438 9.73116C5.61428 9.23887 5.33333 8.57119 5.33333 7.875C5.33333 7.17881 5.61428 6.51113 6.11438 6.01884C6.61448 5.52656 7.29276 5.25 8 5.25C8.70724 5.25 9.38552 5.52656 9.88562 6.01884C10.3857 6.51113 10.6667 7.17881 10.6667 7.875C10.6667 8.57119 10.3857 9.23887 9.88562 9.73116C9.38552 10.2234 8.70724 10.5 8 10.5ZM8 11.8125C9.06087 11.8125 10.0783 11.3977 10.8284 10.6592C11.5786 9.92081 12 8.91929 12 7.875C12 6.83071 11.5786 5.82919 10.8284 5.09077C10.0783 4.35234 9.06087 3.9375 8 3.9375C6.93913 3.9375 5.92172 4.35234 5.17157 5.09077C4.42143 5.82919 4 6.83071 4 7.875C4 8.91929 4.42143 9.92081 5.17157 10.6592C5.92172 11.3977 6.93913 11.8125 8 11.8125Z" fill="#3B0C04"/>
</svg>
