<svg width="19" height="20" viewBox="0 0 19 20" fill="none" xmlns="http://www.w3.org/2000/svg">
<path fill-rule="evenodd" clip-rule="evenodd" d="M18.6014 0.225964C18.4754 0.154337 18.3256 0.0975082 18.1608 0.0587336C17.996 0.019959 17.8192 0 17.6408 0C17.4623 0 17.2856 0.019959 17.1208 0.0587336C16.9559 0.0975082 16.8062 0.154337 16.6802 0.225964L0.398609 9.45565C0.272255 9.5271 0.172009 9.61197 0.103607 9.70542C0.0352077 9.79886 0 9.89903 0 10.0002C0 10.1014 0.0352077 10.2015 0.103607 10.295C0.172009 10.3884 0.272255 10.4733 0.398609 10.5448L16.6802 19.7744C16.9349 19.9189 17.2805 20 17.6408 20C18.0011 20 18.3466 19.9189 18.6014 19.7744C18.8562 19.63 18.9993 19.4341 18.9993 19.2299C18.9993 19.0256 18.8562 18.8298 18.6014 18.6853L3.27773 10.0002L18.6014 1.31507C18.7277 1.24362 18.828 1.15875 18.8964 1.0653C18.9648 0.971859 19 0.871684 19 0.770516C19 0.669347 18.9648 0.569172 18.8964 0.475729C18.828 0.382286 18.7277 0.297411 18.6014 0.225964Z" fill="#3B0C04"/>
</svg>
