<svg width="19" height="20" viewBox="0 0 19 20" fill="none" xmlns="http://www.w3.org/2000/svg">
<path fill-rule="evenodd" clip-rule="evenodd" d="M0.398609 0.225964C0.524644 0.154337 0.674368 0.0975082 0.839206 0.0587336C1.00404 0.019959 1.18076 0 1.35922 0C1.53769 0 1.7144 0.019959 1.87924 0.0587336C2.04407 0.0975082 2.1938 0.154337 2.31983 0.225964L18.6014 9.45565C18.7277 9.5271 18.828 9.61197 18.8964 9.70542C18.9648 9.79886 19 9.89903 19 10.0002C19 10.1014 18.9648 10.2015 18.8964 10.295C18.828 10.3884 18.7277 10.4733 18.6014 10.5448L2.31983 19.7744C2.06506 19.9189 1.71952 20 1.35922 20C0.998922 20 0.653379 19.9189 0.398609 19.7744C0.143839 19.63 0.000710374 19.4341 0.000710374 19.2299C0.000710374 19.0256 0.143839 18.8298 0.398609 18.6853L15.7223 10.0002L0.398609 1.31507C0.272255 1.24362 0.172007 1.15875 0.103607 1.0653C0.0352072 0.971859 0 0.871684 0 0.770516C0 0.669347 0.0352072 0.569172 0.103607 0.475729C0.172007 0.382286 0.272255 0.297411 0.398609 0.225964Z" fill="#3B0C04"/>
</svg>
