<svg width="40" height="38" viewBox="0 0 40 38" fill="none" xmlns="http://www.w3.org/2000/svg">
<path d="M18.5734 2.00861C19.0224 0.626642 20.9776 0.626643 21.4266 2.00861L24.6883 12.0471C25.023 13.0772 25.9829 13.7746 27.0659 13.7746H37.621C39.0741 13.7746 39.6783 15.634 38.5027 16.4881L29.9635 22.6922C29.0872 23.3289 28.7206 24.4573 29.0553 25.4873L32.317 35.5258C32.766 36.9078 31.1843 38.057 30.0087 37.2029L21.4695 30.9987C20.5932 30.3621 19.4068 30.3621 18.5305 30.9987L9.99127 37.2029C8.8157 38.057 7.23398 36.9078 7.68301 35.5258L10.9447 25.4873C11.2794 24.4573 10.9128 23.3288 10.0365 22.6922L1.49727 16.4881C0.321704 15.634 0.925868 13.7746 2.37895 13.7746H12.9341C14.0171 13.7746 14.977 13.0772 15.3117 12.0471L18.5734 2.00861Z" fill="#F2A922" stroke="#3B0C04"/>
</svg>
