<svg width="29" height="40" viewBox="0 0 29 40" fill="none" xmlns="http://www.w3.org/2000/svg">
<path fill-rule="evenodd" clip-rule="evenodd" d="M14.5 0C14.9272 0 15.337 0.1505 15.6391 0.418392C15.9412 0.686284 16.1109 1.04962 16.1109 1.42848L16.1109 35.1206L26.2466 26.1298C26.5491 25.8615 26.9593 25.7108 27.3871 25.7108C27.8149 25.7108 28.2251 25.8615 28.5276 26.1298C28.8301 26.398 29 26.7618 29 27.1411C29 27.5205 28.8301 27.8843 28.5276 28.1525L15.6405 39.5803C15.4909 39.7134 15.3131 39.8189 15.1174 39.8909C14.9217 39.9629 14.7119 40 14.5 40C14.2881 40 14.0783 39.9629 13.8826 39.8909C13.6869 39.8189 13.5091 39.7134 13.3595 39.5803L0.472412 28.1525C0.169931 27.8843 0 27.5205 0 27.1411C0 26.7618 0.169931 26.398 0.472412 26.1298C0.774893 25.8615 1.18514 25.7108 1.61292 25.7108C2.04069 25.7108 2.45094 25.8615 2.75343 26.1298L12.8891 35.1206L12.8891 1.42848C12.8891 1.04962 13.0588 0.686284 13.3609 0.418392C13.663 0.1505 14.0728 0 14.5 0Z" fill="#3B0C04"/>
</svg>
