<svg width="20" height="25" viewBox="0 0 20 25" fill="none" xmlns="http://www.w3.org/2000/svg">
<path d="M19.0884 14.1219L4.43258 24.4624C2.70553 25.6827 9.83042e-07 24.6909 9.83042e-07 22.8389V2.15791C-0.000439673 1.74342 0.147274 1.33761 0.425455 0.989085C0.703635 0.640557 1.10049 0.364083 1.56849 0.192771C2.0365 0.0214589 2.55581 -0.0374284 3.06424 0.0231609C3.57268 0.0837502 4.04868 0.261247 4.43525 0.534397L19.0857 10.8749C19.3729 11.0772 19.603 11.3268 19.7607 11.6068C19.9184 11.8869 20 12.1908 20 12.4984C20 12.8059 19.9184 13.1099 19.7607 13.3899C19.603 13.67 19.3729 13.9195 19.0857 14.1219H19.0884Z" fill="#F29422"/>
</svg>
